<?xml version="1.0" encoding="UTF-8" standalone="no"?>
<!-- Created with Inkscape (http://www.inkscape.org/) -->

<svg
   xmlns:dc="http://purl.org/dc/elements/1.1/"
   xmlns:cc="http://creativecommons.org/ns#"
   xmlns:rdf="http://www.w3.org/1999/02/22-rdf-syntax-ns#"
   xmlns:svg="http://www.w3.org/2000/svg"
   xmlns="http://www.w3.org/2000/svg"
   xmlns:sodipodi="http://sodipodi.sourceforge.net/DTD/sodipodi-0.dtd"
   xmlns:inkscape="http://www.inkscape.org/namespaces/inkscape"
   width="259.3591mm"
   height="466.96277mm"
   viewBox="0 0 259.3591 466.96276"
   version="1.1"
   id="svg1026"
   inkscape:version="0.92.5 (2060ec1f9f, 2020-04-08)"
   sodipodi:docname="parrot.svg">
  <defs
     id="defs1020">
    <inkscape:path-effect
       effect="simplify"
       id="path-effect1969"
       is_visible="true"
       steps="1"
       threshold="0.00777223"
       smooth_angles="360"
       helper_size="0"
       simplify_individual_paths="false"
       simplify_just_coalesce="false"
       simplifyindividualpaths="false"
       simplifyJustCoalesce="false" />
    <inkscape:path-effect
       effect="simplify"
       id="path-effect1979"
       is_visible="true"
       steps="1"
       threshold="0.00777223"
       smooth_angles="360"
       helper_size="0"
       simplify_individual_paths="false"
       simplify_just_coalesce="false"
       simplifyindividualpaths="false"
       simplifyJustCoalesce="false" />
    <inkscape:path-effect
       effect="simplify"
       id="path-effect1983"
       is_visible="true"
       steps="1"
       threshold="0.00777223"
       smooth_angles="360"
       helper_size="0"
       simplify_individual_paths="false"
       simplify_just_coalesce="false"
       simplifyindividualpaths="false"
       simplifyJustCoalesce="false" />
    <inkscape:path-effect
       effect="simplify"
       id="path-effect1987"
       is_visible="true"
       steps="1"
       threshold="0.00777223"
       smooth_angles="360"
       helper_size="0"
       simplify_individual_paths="false"
       simplify_just_coalesce="false"
       simplifyindividualpaths="false"
       simplifyJustCoalesce="false" />
  </defs>
  <sodipodi:namedview
     id="base"
     pagecolor="#ffffff"
     bordercolor="#666666"
     borderopacity="1.0"
     inkscape:pageopacity="0.0"
     inkscape:pageshadow="2"
     inkscape:zoom="0.49497475"
     inkscape:cx="568.67644"
     inkscape:cy="890.99435"
     inkscape:document-units="mm"
     inkscape:current-layer="layer1"
     showgrid="false"
     inkscape:window-width="2497"
     inkscape:window-height="1057"
     inkscape:window-x="55"
     inkscape:window-y="-8"
     inkscape:window-maximized="1" />
  <metadata
     id="metadata1023">
    <rdf:RDF>
      <cc:Work
         rdf:about="">
        <dc:format>image/svg+xml</dc:format>
        <dc:type
           rdf:resource="http://purl.org/dc/dcmitype/StillImage" />
        <dc:title></dc:title>
      </cc:Work>
    </rdf:RDF>
  </metadata>
  <g
     inkscape:label="Layer 1"
     inkscape:groupmode="layer"
     id="layer1"
     transform="translate(217.06144,179.18867)">
    <g
       id="g1577"
       transform="translate(-331.55503,-38.721981)">
      <circle
         inkscape:export-ydpi="96"
         inkscape:export-xdpi="96"
         r="9.0971861"
         cy="20.218245"
         cx="7.9547467"
         id="path5296"
         style="fill:#000000;fill-opacity:1;stroke:#000000;stroke-width:0;stroke-linecap:round;stroke-linejoin:round;stroke-miterlimit:4;stroke-dasharray:none;stroke-dashoffset:0;stroke-opacity:1;paint-order:stroke fill markers" />
      <path
         inkscape:export-ydpi="96"
         inkscape:export-xdpi="96"
         inkscape:connector-curvature="0"
         id="path5323"
         d="M -8.2307392,30.296684 -13.517069,25.900886"
         style="fill:none;stroke:#000000;stroke-width:2;stroke-linecap:round;stroke-linejoin:miter;stroke-miterlimit:4;stroke-dasharray:none;stroke-opacity:1" />
      <path
         inkscape:export-ydpi="96"
         inkscape:export-xdpi="96"
         inkscape:connector-curvature="0"
         id="path5323-6"
         d="M -9.2732492,40.129773 -16.538019,39.657019"
         style="fill:none;stroke:#000000;stroke-width:2;stroke-linecap:round;stroke-linejoin:miter;stroke-miterlimit:4;stroke-dasharray:none;stroke-opacity:1" />
      <path
         inkscape:export-ydpi="96"
         inkscape:export-xdpi="96"
         inkscape:connector-curvature="0"
         id="path5323-6-1"
         d="m -7.7594792,48.592731 -5.8021898,4.39716"
         style="fill:none;stroke:#000000;stroke-width:2;stroke-linecap:round;stroke-linejoin:miter;stroke-miterlimit:4;stroke-dasharray:none;stroke-opacity:1" />
      <path
         inkscape:export-ydpi="96"
         inkscape:export-xdpi="96"
         style="fill:none;stroke:#000000;stroke-width:2;stroke-linecap:round;stroke-linejoin:miter;stroke-miterlimit:4;stroke-dasharray:none;stroke-opacity:1"
         d="m 23.533318,49.315407 5.85641,4.32468"
         id="path5376"
         inkscape:connector-curvature="0" />
      <path
         inkscape:export-ydpi="96"
         inkscape:export-xdpi="96"
         style="fill:none;stroke:#000000;stroke-width:2;stroke-linecap:round;stroke-linejoin:miter;stroke-miterlimit:4;stroke-dasharray:none;stroke-opacity:1"
         d="m 25.295705,40.141097 7.22431,-0.899874"
         id="path5378"
         inkscape:connector-curvature="0" />
      <path
         inkscape:export-ydpi="96"
         inkscape:export-xdpi="96"
         style="fill:none;stroke:#000000;stroke-width:2;stroke-linecap:round;stroke-linejoin:miter;stroke-miterlimit:4;stroke-dasharray:none;stroke-opacity:1"
         d="m 24.06641,30.298973 5.4761,-4.150036"
         id="path5380"
         inkscape:connector-curvature="0" />
      <circle
         inkscape:export-ydpi="96"
         inkscape:export-xdpi="96"
         r="18.895956"
         cy="39.940166"
         cx="7.9547467"
         id="path5267"
         style="fill:#ffffff;fill-opacity:1;stroke:#000000;stroke-width:3;stroke-linecap:round;stroke-linejoin:round;stroke-miterlimit:4;stroke-dasharray:none;stroke-dashoffset:0;stroke-opacity:1;paint-order:stroke fill markers" />
      <circle
         inkscape:export-ydpi="96"
         inkscape:export-xdpi="96"
         r="2.9824293"
         cy="29.677883"
         cx="0.70587391"
         id="path5271"
         style="fill:#000000;fill-opacity:1;stroke:#000000;stroke-width:0;stroke-linecap:round;stroke-linejoin:round;stroke-miterlimit:4;stroke-dasharray:none;stroke-dashoffset:0;stroke-opacity:1;paint-order:stroke fill markers" />
      <circle
         inkscape:export-ydpi="96"
         inkscape:export-xdpi="96"
         r="2.9824293"
         cy="39.940166"
         cx="-3.866384"
         id="path5271-1"
         style="fill:#000000;fill-opacity:1;stroke:#000000;stroke-width:0;stroke-linecap:round;stroke-linejoin:round;stroke-miterlimit:4;stroke-dasharray:none;stroke-dashoffset:0;stroke-opacity:1;paint-order:stroke fill markers" />
      <circle
         inkscape:export-ydpi="96"
         inkscape:export-xdpi="96"
         style="fill:#000000;fill-opacity:1;stroke:#000000;stroke-width:0;stroke-linecap:round;stroke-linejoin:round;stroke-miterlimit:4;stroke-dasharray:none;stroke-dashoffset:0;stroke-opacity:1;paint-order:stroke fill markers"
         id="circle5288"
         cx="0.80002922"
         cy="50.158531"
         r="2.9824293" />
      <circle
         inkscape:export-ydpi="96"
         inkscape:export-xdpi="96"
         r="2.9824293"
         cy="39.940166"
         cx="19.053713"
         id="circle5294"
         style="fill:#000000;fill-opacity:1;stroke:#000000;stroke-width:0;stroke-linecap:round;stroke-linejoin:round;stroke-miterlimit:4;stroke-dasharray:none;stroke-dashoffset:0;stroke-opacity:1;paint-order:stroke fill markers" />
      <circle
         inkscape:export-ydpi="96"
         inkscape:export-xdpi="96"
         r="0.66145831"
         cy="5.1617107"
         cx="1.4029735"
         id="path5300"
         style="fill:#000000;fill-opacity:1;stroke:#000000;stroke-width:2;stroke-linecap:round;stroke-linejoin:round;stroke-miterlimit:4;stroke-dasharray:none;stroke-dashoffset:0;stroke-opacity:1;paint-order:stroke fill markers" />
      <circle
         inkscape:export-ydpi="96"
         inkscape:export-xdpi="96"
         style="fill:#000000;fill-opacity:1;stroke:#000000;stroke-width:2;stroke-linecap:round;stroke-linejoin:round;stroke-miterlimit:4;stroke-dasharray:none;stroke-dashoffset:0;stroke-opacity:1;paint-order:stroke fill markers"
         id="circle5319"
         cx="14.626065"
         cy="5.1617112"
         r="0.66145831" />
      <path
         inkscape:export-ydpi="96"
         inkscape:export-xdpi="96"
         sodipodi:nodetypes="ccc"
         inkscape:connector-curvature="0"
         id="path5321"
         d="M 1.2048973,5.2511513 8.2428173,15.564414 14.815587,4.9705183"
         style="fill:none;stroke:#000000;stroke-width:1;stroke-linecap:butt;stroke-linejoin:miter;stroke-miterlimit:4;stroke-dasharray:none;stroke-opacity:1" />
      <path
         inkscape:connector-curvature="0"
         id="path957"
         d="M 7.9547469,20.378124 V 59.867185"
         style="fill:none;stroke:#000000;stroke-width:1.75;stroke-linecap:butt;stroke-linejoin:miter;stroke-miterlimit:4;stroke-dasharray:none;stroke-opacity:1" />
      <circle
         style="fill:#000000;fill-opacity:1;stroke:#000000;stroke-width:0;stroke-linecap:round;stroke-linejoin:round;stroke-miterlimit:4;stroke-dasharray:none;stroke-dashoffset:0;stroke-opacity:1;paint-order:stroke fill markers"
         id="circle1497"
         cx="15.673489"
         cy="29.677883"
         r="2.9824293"
         inkscape:export-xdpi="96"
         inkscape:export-ydpi="96" />
      <circle
         r="2.9824293"
         cy="50.158531"
         cx="16.463812"
         id="circle1499"
         style="fill:#000000;fill-opacity:1;stroke:#000000;stroke-width:0;stroke-linecap:round;stroke-linejoin:round;stroke-miterlimit:4;stroke-dasharray:none;stroke-dashoffset:0;stroke-opacity:1;paint-order:stroke fill markers"
         inkscape:export-xdpi="96"
         inkscape:export-ydpi="96" />
    </g>
    <path
       sodipodi:nodetypes="cccc"
       inkscape:connector-curvature="0"
       id="path1472"
       d="m -353.46034,172.95834 38.94082,0.0161 -19.47912,-17.94462 z"
       style="fill:#ffffff;fill-opacity:1;stroke:#000000;stroke-width:3;stroke-linecap:square;stroke-linejoin:miter;stroke-miterlimit:4;stroke-dasharray:none;stroke-dashoffset:0;stroke-opacity:1;paint-order:markers stroke fill" />
    <path
       sodipodi:nodetypes="cccc"
       inkscape:connector-curvature="0"
       id="path1476"
       d="m -427.75807,266.1289 -0.0161,38.94081 17.94462,-19.47912 z"
       style="fill:#ffffff;fill-opacity:1;stroke:#000000;stroke-width:3;stroke-linecap:square;stroke-linejoin:miter;stroke-miterlimit:4;stroke-dasharray:none;stroke-dashoffset:0;stroke-opacity:1;paint-order:markers stroke fill" />
    <path
       style="fill:#ffffff;fill-opacity:1;stroke:#000000;stroke-width:3;stroke-linecap:square;stroke-linejoin:miter;stroke-miterlimit:4;stroke-dasharray:none;stroke-dashoffset:0;stroke-opacity:1;paint-order:markers stroke fill"
       d="m -459.36013,428.17143 0.0161,-38.94081 -17.94462,19.47912 z"
       id="path1478"
       inkscape:connector-curvature="0"
       sodipodi:nodetypes="cccc" />
    <path
       style="fill:#ffffff;fill-opacity:1;stroke:#000000;stroke-width:3;stroke-linecap:square;stroke-linejoin:miter;stroke-miterlimit:4;stroke-dasharray:none;stroke-dashoffset:0;stroke-opacity:1;paint-order:markers stroke fill"
       d="m -350.99886,204.31648 -38.94082,-0.0161 19.47912,17.94462 z"
       id="path1474"
       inkscape:connector-curvature="0"
       sodipodi:nodetypes="cccc" />
    <path
       style="fill:#ffffff;fill-opacity:1;stroke:#000000;stroke-width:3;stroke-linecap:square;stroke-linejoin:miter;stroke-miterlimit:4;stroke-dasharray:none;stroke-dashoffset:0;stroke-opacity:1;paint-order:markers stroke fill"
       d="m 381.82358,107.37193 -2.66368,2.69622 -3.26174,-1.90643 -1.88344,3.30157 -3.6384,-0.98665 -0.97475,3.68286 h -3.76686 v 3.8129 l -3.63842,0.98664 0.97474,3.68286 -3.26217,1.90645 1.88342,3.30204 -2.66367,2.69622 2.66367,2.69623 -1.88342,3.30158 3.26217,1.90645 -0.97474,3.68286 3.63842,0.98665 v 3.8129 h 3.76686 l 0.97475,3.68284 3.6384,-0.98663 1.88344,3.30204 3.2622,-1.90644 2.66322,2.69574 2.66322,-2.69574 3.2622,1.90644 1.88343,-3.30204 3.63841,0.98663 0.97474,-3.68284 h 3.76732 v -3.8129 l 3.63797,-0.98665 -0.97474,-3.68286 3.26218,-1.90645 -1.88342,-3.30158 2.66367,-2.69623 -2.66367,-2.69622 1.88342,-3.30204 -3.26218,-1.90645 0.97474,-3.68286 -3.63797,-0.98664 v -3.8129 h -3.76732 l -0.97474,-3.68286 -3.63841,0.98665 -1.88343,-3.30157 -3.26174,1.90643 z"
       id="rect1429"
       inkscape:connector-curvature="0" />
    <g
       id="g2524"
       inkscape:export-xdpi="96"
       inkscape:export-ydpi="96"
       transform="translate(-679.17012,-127.82083)">
      <path
         inkscape:export-ydpi="96"
         inkscape:export-xdpi="96"
         sodipodi:nodetypes="cssc"
         inkscape:connector-curvature="0"
         id="path1872"
         d="m 475.63238,54.17573 c 0,0 6.59425,42.80662 24.09425,42.78178 7.86204,-0.0116 32.86201,-15.07923 34.42195,-17.7869 1.31885,-2.28917 1.70952,-35.8608 1.70952,-35.8608"
         style="fill:#784421;stroke:#000000;stroke-width:3;stroke-linecap:butt;stroke-linejoin:miter;stroke-miterlimit:4;stroke-dasharray:none;stroke-opacity:1" />
      <path
         inkscape:export-ydpi="96"
         inkscape:export-xdpi="96"
         sodipodi:nodetypes="ssscsss"
         inkscape:connector-curvature="0"
         id="path1870"
         d="m 527.04742,68.12471 c 10.8705,-10.85797 14.00364,-37.37754 2.44945,-48.93247 -11.84235,-11.84309 -35.07472,-4.73087 -50.2137,2.44661 -17.49638,8.29515 -15.61524,43.42758 -15.61524,43.42758 0,0 5.35821,-13.8929 19.90177,-11.0098 7.80827,1.5479 19.91616,7.14674 24.80068,15.59723 3.74687,6.48229 7.1158,10.01876 18.67704,-1.52915 z"
         style="fill:#784421;stroke:#000000;stroke-width:3;stroke-linecap:butt;stroke-linejoin:miter;stroke-miterlimit:4;stroke-dasharray:none;stroke-opacity:1" />
      <path
         inkscape:export-ydpi="96"
         inkscape:export-xdpi="96"
         sodipodi:nodetypes="cssc"
         inkscape:connector-curvature="0"
         id="path1874"
         d="m 513.95819,12.86579 c 0,0 7.59887,-45.04841 25.10683,-55.14498 16.68391,-9.62135 68.68712,-15.23765 99.89982,15.93907 41.80439,41.75617 28.94763,160.38209 28.94763,160.38209"
         style="fill:none;stroke:#000000;stroke-width:3;stroke-linecap:butt;stroke-linejoin:miter;stroke-miterlimit:4;stroke-dasharray:none;stroke-opacity:1" />
      <path
         inkscape:export-ydpi="96"
         inkscape:export-xdpi="96"
         sodipodi:nodetypes="ccsc"
         inkscape:connector-curvature="0"
         id="path1876"
         d="m 519.08671,89.99142 c 27.32692,32.95761 48.32754,53.41928 48.32754,53.41928 0,0 -52.59462,59.62472 -54.12568,96.44889 -1.6731,40.24058 50.1944,109.93272 50.1944,109.93272"
         style="fill:none;stroke:#000000;stroke-width:3;stroke-linecap:butt;stroke-linejoin:round;stroke-miterlimit:4;stroke-dasharray:none;stroke-opacity:1" />
      <ellipse
         inkscape:export-ydpi="96"
         inkscape:export-xdpi="96"
         ry="19.083498"
         rx="12.224484"
         cx="573.87177"
         cy="18.369669"
         transform="matrix(0.99990315,-0.01391762,0.10057102,0.99492988,0,0)"
         style="fill:#ccff00;fill-opacity:1;stroke:#000000;stroke-width:3.00566626;stroke-linecap:square;stroke-linejoin:miter;stroke-miterlimit:4;stroke-dasharray:none;stroke-dashoffset:0;stroke-opacity:1;paint-order:markers stroke fill"
         id="ellipse1880" />
      <path
         inkscape:export-ydpi="96"
         inkscape:export-xdpi="96"
         sodipodi:nodetypes="csc"
         inkscape:connector-curvature="0"
         id="path1884"
         d="m 667.91247,134.04197 c 0,0 49.80077,43.50267 51.91968,73.37964 3.74046,52.74115 -72.45557,141.14738 -72.45557,141.14738"
         style="fill:none;stroke:#000000;stroke-width:3;stroke-linecap:round;stroke-linejoin:miter;stroke-miterlimit:4;stroke-dasharray:none;stroke-opacity:1" />
      <path
         inkscape:export-ydpi="96"
         inkscape:export-xdpi="96"
         sodipodi:nodetypes="csc"
         inkscape:connector-curvature="0"
         id="path1888"
         d="m 667.91247,134.04197 c 0,0 -79.6678,57.85794 -83.61101,101.49254 -3.88234,42.9609 63.07512,113.03446 63.07512,113.03446"
         style="fill:none;stroke:#000000;stroke-width:3;stroke-linecap:butt;stroke-linejoin:miter;stroke-miterlimit:4;stroke-dasharray:none;stroke-opacity:1" />
      <ellipse
         inkscape:export-ydpi="96"
         inkscape:export-xdpi="96"
         id="ellipse1892"
         style="fill:#000000;fill-opacity:1;stroke:#000000;stroke-width:3.01190162;stroke-linecap:square;stroke-linejoin:miter;stroke-miterlimit:4;stroke-dasharray:none;stroke-dashoffset:0;stroke-opacity:1;paint-order:markers stroke fill"
         transform="matrix(0.87680405,-0.48084785,0.36714943,0.93016197,0,0)"
         cy="289.26004"
         cx="534.59631"
         rx="7.4358578"
         ry="11.626021" />
      <path
         inkscape:export-ydpi="96"
         inkscape:export-xdpi="96"
         inkscape:connector-curvature="0"
         id="path1896"
         d="m 563.48297,349.79231 69.19692,0.91749 -1.22473,-19.87883"
         style="fill:none;stroke:#000000;stroke-width:3;stroke-linecap:butt;stroke-linejoin:miter;stroke-miterlimit:4;stroke-dasharray:none;stroke-opacity:1" />
      <path
         sodipodi:nodetypes="ccssssssccccccssscsccc"
         inkscape:export-ydpi="96"
         inkscape:export-xdpi="96"
         inkscape:connector-curvature="0"
         id="path1898"
         d="m 586.26163,348.19161 -21.77404,-0.16851 -8.62731,-12.99008 c -30.80567,-46.38389 -44.0669,-80.81869 -39.51152,-102.59771 3.70759,-17.72576 16.55955,-41.28898 37.69815,-69.11713 10.37698,-13.66087 12.37609,-15.87761 27.02882,-29.97114 14.39407,-13.84474 24.8588,-24.59536 33.34186,-34.25274 2.80729,-3.1959 11.23928,-11.86612 18.73775,-19.26716 14.62082,-14.43083 17.46342,-18.15028 19.63316,-25.68955 2.39489,-8.32155 0.75558,-19.02544 -4.59012,-29.97115 -1.55823,-25.7264 -23.62809,-70.47657 -2.94127,-39.37284 14.51201,21.7907 22.46972,59.91091 22.481,107.69188 0.003,12.59134 -1.01751,35.50874 -1.72762,38.79771 -0.32309,1.49642 -1.7737,2.96861 -6.67514,6.77455 -19.82224,15.39186 -41.97219,36.58574 -54.33987,51.9944 -7.39687,9.21561 -12.08519,16.40143 -16.27903,24.95098 -5.77913,11.78135 -7.49805,20.30324 -6.14451,30.46273 2.71113,20.34946 16.41085,46.75486 39.85423,76.81668 7.85528,10.07294 7.18672,8.50331 7.64848,17.95715 l 0.41079,8.41027 -11.22489,-0.14493 c -6.17369,-0.0797 -21.02321,-0.22075 -32.99892,-0.31341 z"
         style="fill:#ffcc00;fill-opacity:1;stroke:#000000;stroke-width:0;stroke-linecap:butt;stroke-linejoin:round;stroke-miterlimit:4;stroke-dasharray:none;stroke-dashoffset:0;stroke-opacity:1;paint-order:markers stroke fill" />
      <path
         inkscape:export-ydpi="96"
         inkscape:export-xdpi="96"
         inkscape:connector-curvature="0"
         id="path1900"
         d="m 640.9787,338.37331 c -30.33353,-34.94972 -49.47545,-66.9063 -53.80642,-89.82741 -1.40887,-7.45627 -0.95147,-16.01404 1.19677,-22.39095 6.70316,-19.89787 25.90729,-44.04 55.94421,-70.32928 9.23429,-8.08214 22.64203,-18.80869 23.5101,-18.80869 0.35366,0 4.97486,4.33511 10.26934,9.63358 20.04942,20.06458 33.28459,38.48136 38.1322,53.06116 1.98944,5.98355 1.99079,17.45293 0.003,26.43375 -4.82982,21.8223 -17.62188,47.97401 -38.53077,78.77108 -9.14991,13.47707 -24.52596,34.05823 -29.80482,39.89437 -0.51569,0.57013 -2.16228,-0.96308 -6.91374,-6.43761 z"
         style="fill:#00ffff;fill-opacity:1;stroke:#000000;stroke-width:0;stroke-linecap:butt;stroke-linejoin:round;stroke-miterlimit:4;stroke-dasharray:none;stroke-dashoffset:0;stroke-opacity:1;paint-order:markers stroke fill" />
      <path
         inkscape:export-ydpi="96"
         inkscape:export-xdpi="96"
         style="fill:#502d16;stroke:#000000;stroke-width:3;stroke-linecap:butt;stroke-linejoin:miter;stroke-miterlimit:4;stroke-dasharray:none;stroke-opacity:1"
         d="m 609.58625,336.70162 c -5.91573,17.45792 -25.96275,55.3226 -25.96275,55.3226 l 28.88296,-25.3326 34.08723,22.2343 -13.9138,-38.21612 32.32086,0.90795 -34.36222,-23.75108 z"
         id="path1947"
         inkscape:connector-curvature="0" />
      <path
         inkscape:export-ydpi="96"
         inkscape:export-xdpi="96"
         inkscape:connector-curvature="0"
         id="path1908"
         d="m 563.48297,349.79231 c -11.2239,14.62901 -42.4003,44.03941 -42.4003,44.03941 l 35.50645,-14.7052 25.11432,32.0054 -0.86601,-40.6555 30.31038,11.2452 -24.88618,-33.52998 z"
         style="fill:#502d16;stroke:#000000;stroke-width:3;stroke-linecap:butt;stroke-linejoin:miter;stroke-miterlimit:4;stroke-dasharray:none;stroke-opacity:1" />
      <path
         transform="matrix(1.1572198,0,0,1.1558854,377.32487,-801.50325)"
         inkscape:original-d="m 164.26385,817.48063 c 1.26759,0.14549 2.12366,0.34634 2.71278,0.93548"
         inkscape:path-effect="#path-effect1969"
         inkscape:connector-curvature="0"
         id="path1967"
         d="m 164.26385,817.48063 c 0.61265,0.0737 1.2334,0.15275 1.81379,0.37217 0.33291,0.12586 0.64724,0.30948 0.89899,0.56331"
         style="fill:#000000;stroke:#000000;stroke-width:0.22876899px;stroke-linecap:butt;stroke-linejoin:miter;stroke-opacity:1" />
      <path
         transform="matrix(1.1572198,0,0,1.1558854,377.32487,-801.50325)"
         inkscape:original-d="m 227.31273,727.49102 c -3.48378,5.46034 -10.32211,4.49818 -17.02507,6.17392 -1.25904,0.31475 -2.6412,0.38516 -3.74177,0.93544 -0.83458,0.4173 -3.69126,-0.42469 -4.30304,0.18708 -0.4441,0.44411 -1.43669,0.50126 -1.6838,0.74838 -0.0882,0.0882 0.0882,0.28598 0,0.37417 -0.17676,0.17677 -2.32897,1.4451 -2.80633,1.68378 -0.60061,0.30033 -6.814,1.27024 -7.85772,0.74838 -1.08382,-0.54192 -7.52656,-0.97846 -7.85773,-1.30964 -0.46772,-0.4677 -1.77734,-0.0935 -2.24506,-0.56126 -1.93169,-1.93167 -6.50537,-1.16528 -8.04482,0.37417 -0.77614,0.77616 0.78282,2.27955 0.93545,2.43216 1.1285,1.1285 5.13958,0.93543 7.48355,0.93543 1.70402,0 7.96412,1.22894 8.79316,2.05799 0.28901,0.289 11.16552,1.12254 12.72203,1.12254 2.03515,0 4.15342,-0.59875 5.23849,-1.6838 0.1049,-0.10491 5.3427,-0.26996 5.42557,-0.18709 0.76422,0.76422 5.61009,2.99342 6.92228,2.99342"
         inkscape:path-effect="#path-effect1979"
         inkscape:connector-curvature="0"
         id="path1977"
         d="m 227.31273,727.49102 c -1.99959,3.32504 -6.00219,4.46453 -9.61117,4.92378 -3.53589,0.44995 -7.4935,0.0273 -10.50957,1.92188 -1.66344,1.04492 -3.42616,0.24685 -5.36484,0.72032 -1.41472,0.34551 -2.04514,1.43649 -3.45941,2.19786 -1.72262,0.92737 -3.80916,0.75861 -5.68621,1.15904 -1.83721,0.39193 -3.56115,-0.26146 -5.338,-0.59323 -1.92089,-0.35866 -3.83069,-1.1717 -5.7886,-1.00737 -1.87909,0.15771 -3.05772,-1.50086 -5.04449,-1.48946 -1.67508,0.01 -4.18214,-0.0971 -4.76305,1.5216 -0.62491,1.74134 1.57322,3.03495 3.18118,3.22406 2.96183,0.34833 5.92123,0.13971 8.90078,0.64279 1.96235,0.33133 3.75156,1.46161 5.69599,1.68994 4.16284,0.48884 8.38607,0.41589 12.53853,0.98434 2.33959,0.32028 4.03041,-1.95797 6.14436,-1.78338 1.64019,0.13546 3.37606,-0.34791 4.94757,0.47951 1.92788,1.01505 3.94395,2.0787 6.11212,2.43339"
         style="fill:none;stroke:#000000;stroke-width:0.22876899px;stroke-linecap:butt;stroke-linejoin:miter;stroke-opacity:1" />
      <path
         transform="matrix(1.1572198,0,0,1.1558854,377.32487,-801.50325)"
         inkscape:original-d="m 217.39703,751.25127 c -7.95743,0.38118 -15.94324,0.3742 -23.94735,0.3742 -1.43968,0 -6.35462,0.006 -6.92228,-0.56129 -0.37346,-0.37346 -1.29188,-0.35642 -1.6838,-0.74835 -0.84657,-0.84656 -1.93477,-1.62219 -3.18051,-2.24507 -0.58368,-0.29183 -1.46455,-0.34202 -1.87088,-0.74834 -0.46136,-0.46136 -2.01629,0.0417 -2.43215,-0.37418 -0.29825,-0.29824 -2.88558,-2.80633 -3.74178,-2.80633 -2.064,0 -5.25005,-3.91729 -7.29645,-1.87089 -0.55165,0.55165 0.44437,2.12817 0.56126,2.24507 0.46772,0.46773 0.8419,1.02899 1.30962,1.49672 0.06,0.06 5.85931,2.61921 5.98684,2.61921 1.73124,0 2.95775,2.77067 3.74177,3.55471 0.37554,0.37552 1.28833,0.53996 1.6838,0.93543 0.24945,0.24945 1.06017,-0.0624 1.30962,0.18709 1.06919,1.06918 7.57381,1.39988 8.41899,2.24507 0.30849,0.3085 1.81022,-0.0303 2.24506,0.18708 0.91086,0.45543 4.0473,0.86681 4.49013,1.30964 2.93966,2.93965 8.0749,2.99342 13.2833,2.99342"
         inkscape:path-effect="#path-effect1983"
         inkscape:connector-curvature="0"
         id="path1981"
         d="m 217.39703,751.25127 c -9.14524,0.39939 -18.30647,0.13591 -27.45702,0.31849 -1.57571,0.0314 -3.13304,-0.18508 -4.48989,-0.94338 -1.31122,-0.7328 -2.42281,-1.80768 -3.78703,-2.55562 -1.45177,-0.79594 -3.41258,-0.2796 -4.51432,-1.32873 -1.31703,-1.25414 -2.81135,-2.16624 -4.57154,-2.84934 -1.79356,-0.69605 -3.48339,-2.90613 -5.439,-2.12882 -2.20848,0.87782 -0.2384,3.65707 1.05448,4.24894 1.98026,0.90655 3.81656,2.43679 5.98684,2.61921 2.23745,0.18807 2.59881,2.98577 4.33529,3.91144 1.40244,0.7476 2.78322,1.12713 4.34505,1.52054 2.066,0.5204 4.15626,0.90351 6.25176,1.33757 1.79745,0.37232 3.67795,0.83478 5.58213,1.16057 1.74511,0.29857 2.83039,1.83017 4.51826,2.41809 3.24513,1.13035 6.75191,1.03408 10.14018,1.06423"
         style="fill:none;stroke:#000000;stroke-width:0.22876899px;stroke-linecap:butt;stroke-linejoin:miter;stroke-opacity:1" />
      <path
         sodipodi:nodetypes="ccccsccccccsccccssccc"
         inkscape:connector-curvature="0"
         id="path1971"
         d="m 569.63304,143.3378 c -0.2275,-0.28467 -2.18632,-2.36506 -4.35292,-4.62311 -2.16661,-2.25805 -3.88887,-4.1463 -3.82726,-4.19611 1.22869,-0.99361 8.68973,-7.59307 11.43712,-10.11643 31.10121,-28.56504 52.54892,-54.39729 60.56575,-72.94713 3.74674,-8.66943 4.66619,-14.31581 4.6315,-28.44201 -0.0348,-14.19323 -1.78121,-29.69675 -5.30672,-47.11103 -0.49226,-2.43154 -0.74838,-6.28823 -0.70705,-6.32979 0.0413,-0.0416 0.76665,-0.18375 1.52108,0.073 2.20103,-1.62428 5.2077,4.31093 3.75113,3.95498 -0.6185,-0.15117 -0.65692,2.07294 -0.79506,2.43247 -0.29806,0.77586 0.63543,4.42809 3.56807,13.95995 4.74657,15.42762 6.33315,21.74612 7.36995,29.3505 0.53566,3.92888 0.84652,5.21152 1.81589,7.49278 6.0667,14.27709 5.77489,26.9225 -0.83477,36.17444 -2.56415,3.58917 -4.9188,6.12363 -17.39365,18.72169 -6.74568,6.81232 -15.01837,15.4126 -18.38375,19.11174 -9.02757,9.92287 -17.39176,18.5511 -26.98119,27.83286 -4.69208,4.54154 -10.13607,9.81469 -12.09777,11.71807 -3.21871,3.12306 -3.60707,3.4102 -3.98035,2.94314 z"
         style="fill:#000000;fill-opacity:1;stroke:#000000;stroke-width:0;stroke-linecap:round;stroke-linejoin:round;stroke-miterlimit:4;stroke-dasharray:none;stroke-dashoffset:0;stroke-opacity:1;paint-order:markers stroke fill" />
      <path
         transform="matrix(1.1572198,0,0,1.1558854,377.32487,-801.50325)"
         inkscape:original-d="m 205.61044,766.03129 c -3.45102,1.08016 -11.17352,-0.0451 -14.40582,-1.12255 -1.40786,-0.46926 -5.38776,-0.71054 -6.17393,-1.49669 -0.40536,-0.40537 -0.53009,-1.09136 -0.93544,-1.49673 -0.93333,-0.93331 -1.84782,-1.84779 -2.80633,-2.80633 -0.32664,-0.32662 -2.16996,-0.67323 -2.43216,-0.93543 -1.00279,-1.0028 -3.00547,-1.50876 -3.92886,-2.43216 -0.10274,-0.10273 -4.04077,-0.86026 -4.30304,-1.12252 -0.46772,-0.46773 -1.21607,-0.65481 -1.68379,-1.12254 -0.42892,-0.42892 -2.16755,-4.75473 -3.18051,-3.74177 -0.57038,0.57036 -2.50708,3.85395 -1.30962,5.0514 0.18708,0.18709 0.56126,0.18709 0.74835,0.37417 0.26141,0.26141 1.58655,0.46403 1.87089,0.74835 1.02899,1.02899 2.33861,1.77734 3.3676,2.80633 0.12472,0.12473 0.0624,0.43654 0.18708,0.56126 0.43654,0.43656 1.24726,0.49893 1.6838,0.93546 0.12963,0.12962 0.80582,0.0575 0.93545,0.18709 0.52053,0.52051 1.87994,0.57031 2.24506,0.93543 0.43366,0.43368 1.39215,0.4567 1.6838,0.74835 0.65631,0.65633 1.7578,1.19655 2.43215,1.8709 0.61828,0.61827 1.87577,0.56615 2.43215,1.12252 1.08206,1.08206 1.91111,2.65948 3.18051,3.92887 1.15979,1.15978 3.14513,1.83552 4.49013,3.18051 0.1559,0.15592 0.0312,0.59245 0.18709,0.74835 1.34615,1.34614 1.21003,4.34678 2.99342,5.23848"
         inkscape:path-effect="#path-effect1987"
         inkscape:connector-curvature="0"
         id="path1985"
         d="m 205.61044,766.03129 c -3.38261,0.84581 -6.92945,0.3297 -10.32744,-0.1672 -2.50492,-0.3663 -4.89637,-1.15958 -7.39848,-1.58486 -1.36413,-0.23186 -2.45029,-0.76525 -3.5291,-2.01604 -1.00031,-1.15977 -1.75974,-2.94916 -3.25403,-3.27742 -1.59236,-0.3498 -2.87453,-1.22689 -4.23884,-2.05806 -1.39333,-0.84885 -2.77691,-1.43726 -4.41175,-1.77653 -1.45867,-0.30271 -3.02376,-0.96737 -3.87571,-2.24623 -0.75118,-1.1276 -1.53974,-4.29245 -2.61659,-3.28 -1.02731,0.96587 -1.64915,2.39592 -1.87429,3.78239 -0.34679,2.13561 2.27585,1.84991 3.3839,2.89496 1.10941,1.04633 2.01183,2.39154 3.33653,3.14141 1.50164,0.85003 3.06567,1.33157 4.68453,1.91035 1.31764,0.47109 2.49804,1.19295 3.54373,2.13473 1.38099,1.24376 3.21992,1.45376 4.33735,3.24441 1.12737,1.80658 2.68703,3.32145 4.63169,4.18042 1.59598,0.70496 2.22847,2.1731 2.82463,3.67181 0.50597,1.27197 0.73953,2.89427 2.06185,3.60661"
         style="fill:none;stroke:#000000;stroke-width:0.22876899px;stroke-linecap:butt;stroke-linejoin:miter;stroke-opacity:1" />
      <path
         inkscape:connector-curvature="0"
         id="path1989"
         d="m 627.42401,57.62574 c -4.73766,-2.10345 -4.8184,-2.12758 -7.14459,-2.13575 -2.02736,-0.007 -2.28547,0.0438 -4.05921,0.8013 -1.04179,0.44492 -2.28484,0.8966 -2.76232,1.00376 -0.55034,0.12352 -2.82903,0.0846 -6.22467,-0.10625 -7.92315,-0.44534 -9.1957,-0.60113 -11.9768,-1.46614 -3.45824,-1.07562 -7.15608,-1.64113 -12.01416,-1.83729 -3.67111,-0.14823 -4.24339,-0.22212 -5.16309,-0.66683 -1.13085,-0.54682 -1.85596,-1.50124 -1.85724,-2.44463 -0.002,-1.01862 1.60203,-1.70135 4.77326,-2.03244 1.07135,-0.11184 1.41471,-0.0355 3.03418,0.67478 1.54798,0.6789 2.18886,0.83102 4.20765,0.99877 2.77326,0.23047 4.83999,0.62309 7.94278,1.50895 2.76321,0.78889 4.03537,0.80247 7.29459,0.0779 3.08656,-0.68619 4.0044,-1.07609 5.60027,-2.37885 1.72491,-1.40816 2.29514,-1.60315 4.68796,-1.60315 1.72248,0 2.31877,-0.0994 3.74227,-0.62362 2.17759,-0.80197 4.236,-1.19964 9.05311,-1.74888 3.90794,-0.44559 6.78313,-1.01161 8.25148,-1.62443 0.43244,-0.18047 0.81554,-0.32812 0.85132,-0.32812 0.14614,0 -0.9752,3.30199 -1.94612,5.73069 -1.09891,2.74888 -4.16021,8.97633 -4.4104,8.97186 -0.0815,0 -0.92765,-0.34867 -1.88027,-0.77163 z"
         style="fill:#000000;fill-opacity:1;stroke:#000000;stroke-width:0;stroke-linecap:round;stroke-linejoin:round;stroke-miterlimit:4;stroke-dasharray:none;stroke-dashoffset:0;stroke-opacity:1;paint-order:markers stroke fill" />
      <path
         inkscape:connector-curvature="0"
         id="path1991"
         d="m 612.81008,76.55606 c -3.28863,-0.29509 -6.08402,-1.27796 -8.04354,-2.82814 -0.98565,-0.77974 -2.06497,-1.16679 -4.47535,-1.60486 -1.0332,-0.18778 -2.7901,-0.58472 -3.90424,-0.88207 -1.11413,-0.29736 -3.11137,-0.6771 -4.4383,-0.84387 -2.38642,-0.29996 -6.95103,-1.64016 -8.06156,-2.36696 -0.27374,-0.17915 -1.07758,-1.08661 -1.7863,-2.01654 -1.49122,-1.95671 -2.35561,-2.49412 -6.31267,-3.92481 -3.70537,-1.33968 -5.50346,-2.87903 -5.78149,-4.94955 -0.0952,-0.70897 -0.0393,-0.89984 0.3201,-1.09193 0.57936,-0.30971 2.23084,0.17854 4.37888,1.2946 0.89307,0.46403 2.37073,1.14092 3.2837,1.50422 1.03328,0.41118 1.93234,0.94397 2.38152,1.4113 1.0641,1.1071 1.85496,1.53734 3.93005,2.13798 2.51321,0.72748 4.45205,1.67252 6.03568,2.94201 0.72411,0.58046 1.8632,1.27628 2.53131,1.54623 l 1.21473,0.49086 h 14.8639 c 9.8468,0 14.82247,0.073 14.74113,0.21625 -0.28777,0.50679 -2.67578,3.88013 -4.55435,6.43352 l -2.02854,2.75722 -1.2272,-0.0303 c -0.67495,-0.0165 -2.05531,-0.10447 -3.06746,-0.1953 z"
         style="fill:#000000;fill-opacity:1;stroke:#000000;stroke-width:0;stroke-linecap:round;stroke-linejoin:round;stroke-miterlimit:4;stroke-dasharray:none;stroke-dashoffset:0;stroke-opacity:1;paint-order:markers stroke fill" />
      <path
         inkscape:connector-curvature="0"
         id="path1993"
         d="m 599.33497,96.19022 c -0.17477,-0.38653 -0.54443,-1.32619 -0.82145,-2.08813 -0.67472,-1.85573 -1.91946,-3.66871 -3.1005,-4.51589 -0.53251,-0.38198 -1.04118,-0.6945 -1.13036,-0.6945 -0.0892,0 -0.6433,-0.3084 -1.23135,-0.68533 -0.69497,-0.44544 -1.67532,-1.46957 -2.80091,-2.92595 -2.62019,-3.39023 -4.79533,-5.05824 -8.13694,-6.23975 -0.91879,-0.32488 -2.74026,-1.0333 -4.04771,-1.57431 -2.1482,-0.88886 -2.52542,-1.13263 -3.91616,-2.53082 -1.00758,-1.01299 -1.94354,-1.72618 -2.71063,-2.06553 -2.61766,-1.15792 -3.33495,-1.61339 -3.72732,-2.36674 -0.86535,-1.66141 0.47524,-4.96692 2.0144,-4.96692 0.74933,0 1.32122,0.64065 2.17738,2.43916 0.38383,0.80628 0.98044,1.70349 1.32581,1.99375 0.34883,0.2932 1.61038,0.82418 2.8383,1.19466 2.8999,0.87494 3.25515,1.0185 4.91665,1.98675 0.774,0.45107 2.4369,1.34714 3.69533,1.99131 2.01295,1.03039 2.62998,1.49684 5.13182,3.87933 2.95347,2.81261 3.53821,3.16269 5.28683,3.16532 0.43948,0 2.297,0.38743 4.12782,0.85944 3.62572,0.9348 6.36807,1.42066 9.30817,1.64909 1.04192,0.081 1.8944,0.1919 1.8944,0.24656 0,0.29481 -10.35608,11.95133 -10.61799,11.95133 -0.0868,0 -0.30081,-0.31626 -0.47559,-0.70283 z"
         style="fill:#000000;fill-opacity:1;stroke:#000000;stroke-width:0;stroke-linecap:round;stroke-linejoin:round;stroke-miterlimit:4;stroke-dasharray:none;stroke-dashoffset:0;stroke-opacity:1;paint-order:markers stroke fill" />
      <path
         sodipodi:nodetypes="sccccssssas"
         inkscape:connector-curvature="0"
         id="path2037"
         d="m 542.48951,-31.13603 c -10.44408,3.30712 -20.59844,29.53951 -24.16448,32.87785 0,0 1.12055,-4.90465 2.59156,-10.03351 2.81465,-9.8137 5.55936,-16.80519 8.73587,-22.25264 1.87977,-3.22359 3.6754,-5.34024 5.92021,-7.30564 6.46345,-5.65905 19.83942,-9.50753 27.02603,-10.67992 7.18661,-1.17239 28.62652,-0.0212 42.25752,3.74219 11.30792,3.12198 25.27159,11.0906 26.59879,13.63917 2.27155,4.36199 4.70629,28.86174 4.70629,28.86174 -0.88222,0.50935 -21.1172,-23.76841 -35.48732,-28.87251 -18.27621,-6.4915 -39.12314,-6.01249 -58.18447,0.0233 z"
         style="fill:#ccff00;fill-opacity:1;stroke:#000000;stroke-width:0;stroke-linecap:round;stroke-linejoin:round;stroke-miterlimit:4;stroke-dasharray:none;stroke-dashoffset:0;stroke-opacity:1;paint-order:markers stroke fill" />
      <path
         transform="scale(0.26458333)"
         inkscape:connector-curvature="0"
         id="path2499"
         d="m 2104.9971,492.42173 c -37.8269,-39.83782 -74.9532,-81.32591 -114.5945,-128.05786 -11.1107,-13.09795 -19.9847,-24.16477 -19.72,-24.59291 0.2646,-0.42815 4.2107,-2.93975 8.7691,-5.58133 25.2923,-14.65665 42.8123,-27.61519 45.1143,-33.36841 2.4875,-6.2169 4.1058,-28.96228 5.6667,-79.64529 0.6039,-19.60996 1.5133,-33.46545 2.6253,-40 2.3381,-13.73948 2.3362,-42.51539 0,-55.4976 -2.3113,-12.82326 -8.2642,-30.028577 -13.67,-39.509407 -4.8361,-8.48176 -15.3249,-20.39726 -22.7578,-25.85353 -10.0926,-7.40868 -28.0567,-14.4897 -41.1738,-16.22974 -3.2492,-0.43101 -5.0129,-1.14612 -5.0129,-2.03247 0,-1.60269 4.0487,-20.65652 6.6293,-31.19862 1.0704,-4.3726999 2.0285,-6.6517699 2.3778,-5.6560499 0.8462,2.41236 5.4953,-4.95878997 20.3785,-32.3100001 23.1162,-42.481023 35.2429,-60.895225 49.5757,-75.279763 4.6963,-4.71327 10.6699,-9.79106 13.2748,-11.28398 2.6048,-1.49292 11.6048,-4.66562 20,-7.05043 63.7813,-18.11839 130.4948,-18.97895 189.1591,-2.44004 40.0995,11.30503 62.7106,27.226065 122.2215,86.05901 16.0142,15.831763 29.5592,28.7850232 30.1001,28.7850232 0.9256,0 2.7152,15.0106399 5.4842,45.9999998 0.6888,7.7088 1.2036,30.01565 1.2001,52 0,31.272417 -0.3374,40.895797 -1.7706,51.262007 -2.7355,19.78604 -3.1207,20.70873 -9.7583,23.37703 -7.8482,3.15494 -19.1206,5.17493 -35.3773,6.33954 -15.6061,1.118 -23.0167,2.72504 -30.7617,6.67094 -4.2895,2.18541 -7.1272,2.77991 -15.7366,3.29689 -11.3022,0.67867 -11.0483,0.59397 -18.4966,6.17077 -6.5093,4.8737 -9.0907,5.81399 -20.5,7.4673 -15.9297,2.30836 -20.3913,1.86444 -47,-4.67641 -1.925,-0.4732 -5.8938,-0.87109 -8.8195,-0.88421 -3.708,-0.0166 -7.6463,-1.0046 -13,-3.26117 -6.7444,-2.84276 -8.6451,-3.21121 -15.5953,-3.02317 -9.2833,0.25116 -14.0013,1.58879 -16.0821,4.55951 -2.2835,3.26023 -1.8645,8.11798 0.9932,11.51417 4.175,4.96173 9.0073,6.19634 28.4095,7.25834 19.9726,1.09323 24.9177,1.90887 35.9226,5.92516 8.1401,2.9708 12.3527,3.50757 48.6716,6.20179 22.994,1.70575 23.9006,1.63575 33.2007,-2.56337 7.6065,-3.4344 8.6279,-3.63512 18.4977,-3.63512 10.2879,0 10.5825,0.066 19.3742,4.34236 4.9101,2.3883 10.6094,4.89637 12.6651,5.57349 l 3.7377,1.23112 -1.6297,3.17652 c -0.8963,1.74708 -4.9817,8.47771 -9.0786,14.95696 l -7.4489,11.78045 -58.6591,-0.28045 -58.6591,-0.28045 -4.4769,-2.38609 c -2.4623,-1.31234 -6.8766,-4.15885 -9.8096,-6.32558 -6.2925,-4.64856 -12.7283,-7.73355 -16.2135,-7.77194 -4.8892,-0.0539 -9.91,-2.122 -14.6395,-6.03019 -2.6376,-2.1796 -8.1852,-5.62338 -12.3281,-7.65285 -4.1428,-2.02946 -10.3737,-5.46822 -13.8464,-7.64169 -7.9218,-4.95804 -13.4952,-5.82641 -17.436,-2.7166 -4.7567,3.75367 -3.2844,11.41141 3.2265,16.78148 4.0824,3.36708 22.2393,12.30888 27.0649,13.32878 7.5095,1.58713 8.1463,2.02558 13.4679,9.27335 2.5779,3.51088 6.3444,7.31486 8.3699,8.4533 5.5165,3.10045 18.5094,6.58624 45.4096,12.18272 28.5174,5.93294 28.3448,5.88012 36.4192,11.14081 7.9624,5.18772 17.5147,7.75621 32.2117,8.66126 l 11.4198,0.70324 -10.0545,12.59879 c -5.53,6.92933 -10.7743,12.87501 -11.6541,13.21262 -4.0148,1.54061 -28.1324,-1.67968 -52.0212,-6.94608 -17.3759,-3.8306 -21.4946,-5.70948 -26.2934,-11.99452 -6.9717,-9.13097 -10.4879,-12.26698 -15.6431,-13.95149 -2.8453,-0.92973 -8.3232,-3.51984 -12.1732,-5.75581 -10.5522,-6.12838 -15.2409,-8.20753 -23.7787,-10.54421 -11.0802,-3.03251 -15.048,-5.97169 -18.9063,-14.00489 -3.3714,-7.01942 -6.4302,-11.11441 -8.3022,-11.11441 -3.6765,0 -10.4991,12.0003 -10.7765,18.95452 -0.1944,4.87565 1.7829,7.22172 8.0627,9.56638 3.0717,1.14687 7.3004,4.25629 12.201,8.97143 8.4948,8.1734 10.2374,9.20112 24.9285,14.70197 6.562,2.45704 13.0368,5.74543 17.0715,8.67019 3.575,2.59152 9.3232,6.42127 12.7738,8.51057 4.4299,2.68218 7.7552,5.78448 11.3135,10.55475 5.24,7.02463 11.4358,12.33361 18.6048,15.94182 5.5461,2.79141 8.5322,6.91578 12.4184,17.15241 1.7699,4.66178 3.8724,9.49101 4.6724,10.73162 1.4035,2.17646 0.792,2.94528 -17.4142,21.8968 -17.6828,18.40668 -51.7774,51.78762 -73.3687,71.83285 -12.6027,11.70028 -49.2154,44.27687 -51.7871,46.07815 -1.9139,1.34054 -2.9293,0.47851 -17.4556,-14.82006 z m 92.9446,-379.1838 c 13.44,-6.04517 24.3206,-22.243077 28.5011,-42.429577 2.8472,-13.74814 2.1335,-36.32771 -1.6002,-50.63002 -3.3433,-12.8063399 -11.782,-30.0035898 -18.9733,-38.66533 -5.7491,-6.92463 -15.3841,-14.48435 -21.9092,-17.1901 -10.387,-4.307194 -21.9262,-4.111366 -31.655,0.5372 -6.1166,2.92262 -15.8415,12.96437 -19.6924,20.33384 -6.6971,12.8165601 -9.3729,25.16671 -9.3729,43.26097 0,40.13154 20.0297,76.429847 47.5493,86.170107 8.3455,2.95379 18.6749,2.42611 27.1526,-1.38709 z"
         style="fill:#ffffff;fill-opacity:1;stroke:#a4a4a4;stroke-width:0;stroke-linecap:butt;stroke-linejoin:round;stroke-miterlimit:4;stroke-dasharray:none;stroke-dashoffset:0;stroke-opacity:1;paint-order:stroke fill markers" />
    </g>
  </g>
</svg>
