<?xml version="1.0" encoding="UTF-8" standalone="no"?>
<!-- Created with Inkscape (http://www.inkscape.org/) -->

<svg
   xmlns:dc="http://purl.org/dc/elements/1.1/"
   xmlns:cc="http://creativecommons.org/ns#"
   xmlns:rdf="http://www.w3.org/1999/02/22-rdf-syntax-ns#"
   xmlns:svg="http://www.w3.org/2000/svg"
   xmlns="http://www.w3.org/2000/svg"
   xmlns:sodipodi="http://sodipodi.sourceforge.net/DTD/sodipodi-0.dtd"
   xmlns:inkscape="http://www.inkscape.org/namespaces/inkscape"
   width="14.199707mm"
   height="42.961834mm"
   viewBox="0 0 14.199707 42.961834"
   version="1.1"
   id="svg1026"
   inkscape:version="0.92.5 (2060ec1f9f, 2020-04-08)"
   sodipodi:docname="spoon.svg">
  <defs
     id="defs1020" />
  <sodipodi:namedview
     id="base"
     pagecolor="#ffffff"
     bordercolor="#666666"
     borderopacity="1.0"
     inkscape:pageopacity="0.0"
     inkscape:pageshadow="2"
     inkscape:zoom="0.35"
     inkscape:cx="-216.07426"
     inkscape:cy="-49.253864"
     inkscape:document-units="mm"
     inkscape:current-layer="layer1"
     showgrid="false"
     inkscape:window-width="1217"
     inkscape:window-height="777"
     inkscape:window-x="55"
     inkscape:window-y="-8"
     inkscape:window-maximized="1" />
  <metadata
     id="metadata1023">
    <rdf:RDF>
      <cc:Work
         rdf:about="">
        <dc:format>image/svg+xml</dc:format>
        <dc:type
           rdf:resource="http://purl.org/dc/dcmitype/StillImage" />
        <dc:title></dc:title>
      </cc:Work>
    </rdf:RDF>
  </metadata>
  <g
     inkscape:label="Layer 1"
     inkscape:groupmode="layer"
     id="layer1"
     transform="translate(107.62797,-92.839747)">
    <path
       style="fill:#ffffff;fill-opacity:1;stroke:#000000;stroke-width:2.99999976;stroke-linecap:square;stroke-linejoin:miter;stroke-miterlimit:4;stroke-dasharray:none;stroke-dashoffset:0;stroke-opacity:1;paint-order:markers stroke fill"
       d="m -106.12797,125.71105 a 5.6000854,8.5901292 0 0 0 5.60022,8.59053 5.6000854,8.5901292 0 0 0 5.599487,-8.59053 5.6000854,8.5901292 0 0 0 -4.654525,-8.45721 1.6545708,12.669184 0 0 0 0.684804,-10.24492 1.6545708,12.669184 0 0 0 -1.654396,-12.669172 1.6545708,12.669184 0 0 0 -1.65507,12.669172 1.6545708,12.669184 0 0 0 0.68552,10.25158 5.6000854,8.5901292 0 0 0 -4.60604,8.45055 z"
       id="path1759"
       inkscape:connector-curvature="0" />
  </g>
</svg>
